# xmcd
#
# Track frame offsets:
#	150
#	2915
#	18830
#	36294
#	55607
#	74257
#	90614
#	105353
#	131763
#	149140
#	165537
#	186893
#	208246
#	223820
#	241890
#
# Disc length: 3697 seconds
#
# Revision: 4
# Processed by: cddbd v1.5.2PL0 Copyright (c) Steve Scherf et al.
# Submitted via: EZCDAudioConverter 7.0.6.1
#
DISCID=d70e6f0f
DTITLE=The Sound - BBC Live In Concert
DYEAR=2014
DGENRE=
TTITLE0=BBC Intro - Pete Drummond
TTITLE1=Unwritten Law
TTITLE2=Skeletons
TTITLE3=Fatal Flaw
TTITLE4=Winning
TTITLE5=Sense Of Purpose
TTITLE6=Heartland
TTITLE7=New Dark Age
TTITLE8=BBC Intro - Pete Drummond and Intro Music
TTITLE9=Golden Soldiers
TTITLE10=Under You
TTITLE11=Total Recall
TTITLE12=Burning Part Of Me
TTITLE13=Whirlpool
TTITLE14=Missiles
EXTD=
EXTT0=
EXTT1=
EXTT2=
EXTT3=
EXTT4=
EXTT5=
EXTT6=
EXTT7=
EXTT8=
EXTT9=
EXTT10=
EXTT11=
EXTT12=
EXTT13=
EXTT14=
PLAYORDER=
